<!-- <?xml version="1.0" standalone="no"?><svg xmlns="http://www.w3.org/2000/svg" viewBox="0 0 1440 320"><path fill="#d9d4c5" fill-opacity="1" d="M0,128L24,122.7C48,117,96,107,144,112C192,117,240,139,288,165.3C336,192,384,224,432,224C480,224,528,192,576,149.3C624,107,672,53,720,69.3C768,85,816,171,864,202.7C912,235,960,213,1008,197.3C1056,181,1104,171,1152,186.7C1200,203,1248,245,1296,234.7C1344,224,1392,160,1416,128L1440,96L1440,0L1416,0C1392,0,1344,0,1296,0C1248,0,1200,0,1152,0C1104,0,1056,0,1008,0C960,0,912,0,864,0C816,0,768,0,720,0C672,0,624,0,576,0C528,0,480,0,432,0C384,0,336,0,288,0C240,0,192,0,144,0C96,0,48,0,24,0L0,0Z"></path></svg> -->


<svg viewBox="0 0 1263 208" xmlns="http://www.w3.org/2000/svg" xmlns:xlink="http://www.w3.org/1999/xlink"><path fill="rgba(217, 212, 197, 1)" d="M 40 47 C 84.6 47 56.400000000000006 125 141 1295 L 141 125 L 141 0 L 0 0 Z" stroke-width="0"></path> <path fill="rgba(217, 212, 197, 1)" d="M 140 125 C 230.6 125 200.4 96 291 96 L 211 96 L 291 0 L 140 0 Z" stroke-width="0"></path> <path fill="rgba(217, 212, 197, 1)" d="M 290 96 C 389 96 356 151 455 151 L 455 151 L 455 0 L 290 0 Z" stroke-width="0"></path><path fill="rgba(217, 212, 197, 1)" d="M 454 151 C 565 151 528 81 639 81 L 639 81 L 639 0 L 454 0 Z" stroke-width="0"></path><path fill="rgba(217, 212, 197, 1)" d="M 638 81 C 744.2 81 708.8 153 815 153 L 815 153 L 815 0 L 638 0 Z" stroke-width="0"></path><path fill="rgba(217, 212, 197, 1)" d="M 814 153 C 923.2 153 886.8 87 996 87 L 996 87 L 996 0 L 814 0 Z" stroke-width="0"></path><path fill="rgba(217, 212, 197, 1)" d="M 995 87 C 1074.8 87 1048.2 111 1128 111 L 1188 111 L 1128 0 L 995 0 Z" stroke-width="0"></path><path fill="rgba(217, 212, 197, 1)" d="M 1127 111 C 1208.6 111 1181.4 66 1263 66 L 1263 66 L 1263 0 L 1127 0 Z" stroke-width="0"></path></svg>